<?xml version="1.0" encoding="utf-8" standalone="no"?>
<!DOCTYPE svg PUBLIC "-//W3C//DTD SVG 1.1//EN"
  "http://www.w3.org/Graphics/SVG/1.1/DTD/svg11.dtd">
<svg xmlns:xlink="http://www.w3.org/1999/xlink" width="460.8pt" height="345.6pt" viewBox="0 0 460.8 345.6" xmlns="http://www.w3.org/2000/svg" version="1.1">
 <metadata>
  <rdf:RDF xmlns:dc="http://purl.org/dc/elements/1.1/" xmlns:cc="http://creativecommons.org/ns#" xmlns:rdf="http://www.w3.org/1999/02/22-rdf-syntax-ns#">
   <cc:Work>
    <dc:type rdf:resource="http://purl.org/dc/dcmitype/StillImage"/>
    <dc:date>2025-09-15T13:07:29.756750</dc:date>
    <dc:format>image/svg+xml</dc:format>
    <dc:creator>
     <cc:Agent>
      <dc:title>Matplotlib v3.10.0, https://matplotlib.org/</dc:title>
     </cc:Agent>
    </dc:creator>
   </cc:Work>
  </rdf:RDF>
 </metadata>
 <defs>
  <style type="text/css">*{stroke-linejoin: round; stroke-linecap: butt}</style>
 </defs>
 <g id="figure_1">
  <g id="patch_1">
   <path d="M 0 345.6 
L 460.8 345.6 
L 460.8 0 
L 0 0 
z
" style="fill: #ffffff"/>
  </g>
  <g id="axes_1">
   <g id="patch_2">
    <path d="M 57.6 307.584 
L 414.72 307.584 
L 414.72 41.472 
L 57.6 41.472 
z
" style="fill: #ffffff"/>
   </g>
   <g id="matplotlib.axis_1">
    <g id="xtick_1">
     <g id="line2d_1">
      <defs>
       <path id="md1b2cf9237" d="M 0 0 
L 0 3.5 
" style="stroke: #000000; stroke-width: 0.8"/>
      </defs>
      <g>
       <use xlink:href="#md1b2cf9237" x="73.832727" y="307.584" style="stroke: #000000; stroke-width: 0.8"/>
      </g>
     </g>
     <g id="text_1">
      <!-- −10.0 -->
      <g transform="translate(58.510071 322.182437) scale(0.1 -0.1)">
       <defs>
        <path id="DejaVuSans-2212" d="M 678 2272 
L 4684 2272 
L 4684 1741 
L 678 1741 
L 678 2272 
z
" transform="scale(0.015625)"/>
        <path id="DejaVuSans-31" d="M 794 531 
L 1825 531 
L 1825 4091 
L 703 3866 
L 703 4441 
L 1819 4666 
L 2450 4666 
L 2450 531 
L 3481 531 
L 3481 0 
L 794 0 
L 794 531 
z
" transform="scale(0.015625)"/>
        <path id="DejaVuSans-30" d="M 2034 4250 
Q 1547 4250 1301 3770 
Q 1056 3291 1056 2328 
Q 1056 1369 1301 889 
Q 1547 409 2034 409 
Q 2525 409 2770 889 
Q 3016 1369 3016 2328 
Q 3016 3291 2770 3770 
Q 2525 4250 2034 4250 
z
M 2034 4750 
Q 2819 4750 3233 4129 
Q 3647 3509 3647 2328 
Q 3647 1150 3233 529 
Q 2819 -91 2034 -91 
Q 1250 -91 836 529 
Q 422 1150 422 2328 
Q 422 3509 836 4129 
Q 1250 4750 2034 4750 
z
" transform="scale(0.015625)"/>
        <path id="DejaVuSans-2e" d="M 684 794 
L 1344 794 
L 1344 0 
L 684 0 
L 684 794 
z
" transform="scale(0.015625)"/>
       </defs>
       <use xlink:href="#DejaVuSans-2212"/>
       <use xlink:href="#DejaVuSans-31" transform="translate(83.789062 0)"/>
       <use xlink:href="#DejaVuSans-30" transform="translate(147.412109 0)"/>
       <use xlink:href="#DejaVuSans-2e" transform="translate(211.035156 0)"/>
       <use xlink:href="#DejaVuSans-30" transform="translate(242.822266 0)"/>
      </g>
     </g>
    </g>
    <g id="xtick_2">
     <g id="line2d_2">
      <g>
       <use xlink:href="#md1b2cf9237" x="114.414545" y="307.584" style="stroke: #000000; stroke-width: 0.8"/>
      </g>
     </g>
     <g id="text_2">
      <!-- −7.5 -->
      <g transform="translate(102.273139 322.182437) scale(0.1 -0.1)">
       <defs>
        <path id="DejaVuSans-37" d="M 525 4666 
L 3525 4666 
L 3525 4397 
L 1831 0 
L 1172 0 
L 2766 4134 
L 525 4134 
L 525 4666 
z
" transform="scale(0.015625)"/>
        <path id="DejaVuSans-35" d="M 691 4666 
L 3169 4666 
L 3169 4134 
L 1269 4134 
L 1269 2991 
Q 1406 3038 1543 3061 
Q 1681 3084 1819 3084 
Q 2600 3084 3056 2656 
Q 3513 2228 3513 1497 
Q 3513 744 3044 326 
Q 2575 -91 1722 -91 
Q 1428 -91 1123 -41 
Q 819 9 494 109 
L 494 744 
Q 775 591 1075 516 
Q 1375 441 1709 441 
Q 2250 441 2565 725 
Q 2881 1009 2881 1497 
Q 2881 1984 2565 2268 
Q 2250 2553 1709 2553 
Q 1456 2553 1204 2497 
Q 953 2441 691 2322 
L 691 4666 
z
" transform="scale(0.015625)"/>
       </defs>
       <use xlink:href="#DejaVuSans-2212"/>
       <use xlink:href="#DejaVuSans-37" transform="translate(83.789062 0)"/>
       <use xlink:href="#DejaVuSans-2e" transform="translate(147.412109 0)"/>
       <use xlink:href="#DejaVuSans-35" transform="translate(179.199219 0)"/>
      </g>
     </g>
    </g>
    <g id="xtick_3">
     <g id="line2d_3">
      <g>
       <use xlink:href="#md1b2cf9237" x="154.996364" y="307.584" style="stroke: #000000; stroke-width: 0.8"/>
      </g>
     </g>
     <g id="text_3">
      <!-- −5.0 -->
      <g transform="translate(142.854957 322.182437) scale(0.1 -0.1)">
       <use xlink:href="#DejaVuSans-2212"/>
       <use xlink:href="#DejaVuSans-35" transform="translate(83.789062 0)"/>
       <use xlink:href="#DejaVuSans-2e" transform="translate(147.412109 0)"/>
       <use xlink:href="#DejaVuSans-30" transform="translate(179.199219 0)"/>
      </g>
     </g>
    </g>
    <g id="xtick_4">
     <g id="line2d_4">
      <g>
       <use xlink:href="#md1b2cf9237" x="195.578182" y="307.584" style="stroke: #000000; stroke-width: 0.8"/>
      </g>
     </g>
     <g id="text_4">
      <!-- −2.5 -->
      <g transform="translate(183.436776 322.182437) scale(0.1 -0.1)">
       <defs>
        <path id="DejaVuSans-32" d="M 1228 531 
L 3431 531 
L 3431 0 
L 469 0 
L 469 531 
Q 828 903 1448 1529 
Q 2069 2156 2228 2338 
Q 2531 2678 2651 2914 
Q 2772 3150 2772 3378 
Q 2772 3750 2511 3984 
Q 2250 4219 1831 4219 
Q 1534 4219 1204 4116 
Q 875 4013 500 3803 
L 500 4441 
Q 881 4594 1212 4672 
Q 1544 4750 1819 4750 
Q 2544 4750 2975 4387 
Q 3406 4025 3406 3419 
Q 3406 3131 3298 2873 
Q 3191 2616 2906 2266 
Q 2828 2175 2409 1742 
Q 1991 1309 1228 531 
z
" transform="scale(0.015625)"/>
       </defs>
       <use xlink:href="#DejaVuSans-2212"/>
       <use xlink:href="#DejaVuSans-32" transform="translate(83.789062 0)"/>
       <use xlink:href="#DejaVuSans-2e" transform="translate(147.412109 0)"/>
       <use xlink:href="#DejaVuSans-35" transform="translate(179.199219 0)"/>
      </g>
     </g>
    </g>
    <g id="xtick_5">
     <g id="line2d_5">
      <g>
       <use xlink:href="#md1b2cf9237" x="236.16" y="307.584" style="stroke: #000000; stroke-width: 0.8"/>
      </g>
     </g>
     <g id="text_5">
      <!-- 0.0 -->
      <g transform="translate(228.208438 322.182437) scale(0.1 -0.1)">
       <use xlink:href="#DejaVuSans-30"/>
       <use xlink:href="#DejaVuSans-2e" transform="translate(63.623047 0)"/>
       <use xlink:href="#DejaVuSans-30" transform="translate(95.410156 0)"/>
      </g>
     </g>
    </g>
    <g id="xtick_6">
     <g id="line2d_6">
      <g>
       <use xlink:href="#md1b2cf9237" x="276.741818" y="307.584" style="stroke: #000000; stroke-width: 0.8"/>
      </g>
     </g>
     <g id="text_6">
      <!-- 2.5 -->
      <g transform="translate(268.790256 322.182437) scale(0.1 -0.1)">
       <use xlink:href="#DejaVuSans-32"/>
       <use xlink:href="#DejaVuSans-2e" transform="translate(63.623047 0)"/>
       <use xlink:href="#DejaVuSans-35" transform="translate(95.410156 0)"/>
      </g>
     </g>
    </g>
    <g id="xtick_7">
     <g id="line2d_7">
      <g>
       <use xlink:href="#md1b2cf9237" x="317.323636" y="307.584" style="stroke: #000000; stroke-width: 0.8"/>
      </g>
     </g>
     <g id="text_7">
      <!-- 5.0 -->
      <g transform="translate(309.372074 322.182437) scale(0.1 -0.1)">
       <use xlink:href="#DejaVuSans-35"/>
       <use xlink:href="#DejaVuSans-2e" transform="translate(63.623047 0)"/>
       <use xlink:href="#DejaVuSans-30" transform="translate(95.410156 0)"/>
      </g>
     </g>
    </g>
    <g id="xtick_8">
     <g id="line2d_8">
      <g>
       <use xlink:href="#md1b2cf9237" x="357.905455" y="307.584" style="stroke: #000000; stroke-width: 0.8"/>
      </g>
     </g>
     <g id="text_8">
      <!-- 7.5 -->
      <g transform="translate(349.953892 322.182437) scale(0.1 -0.1)">
       <use xlink:href="#DejaVuSans-37"/>
       <use xlink:href="#DejaVuSans-2e" transform="translate(63.623047 0)"/>
       <use xlink:href="#DejaVuSans-35" transform="translate(95.410156 0)"/>
      </g>
     </g>
    </g>
    <g id="xtick_9">
     <g id="line2d_9">
      <g>
       <use xlink:href="#md1b2cf9237" x="398.487273" y="307.584" style="stroke: #000000; stroke-width: 0.8"/>
      </g>
     </g>
     <g id="text_9">
      <!-- 10.0 -->
      <g transform="translate(387.35446 322.182437) scale(0.1 -0.1)">
       <use xlink:href="#DejaVuSans-31"/>
       <use xlink:href="#DejaVuSans-30" transform="translate(63.623047 0)"/>
       <use xlink:href="#DejaVuSans-2e" transform="translate(127.246094 0)"/>
       <use xlink:href="#DejaVuSans-30" transform="translate(159.033203 0)"/>
      </g>
     </g>
    </g>
    <g id="text_10">
     <!-- E -->
     <g transform="translate(233.000625 335.860562) scale(0.1 -0.1)">
      <defs>
       <path id="DejaVuSans-45" d="M 628 4666 
L 3578 4666 
L 3578 4134 
L 1259 4134 
L 1259 2753 
L 3481 2753 
L 3481 2222 
L 1259 2222 
L 1259 531 
L 3634 531 
L 3634 0 
L 628 0 
L 628 4666 
z
" transform="scale(0.015625)"/>
      </defs>
      <use xlink:href="#DejaVuSans-45"/>
     </g>
    </g>
   </g>
   <g id="matplotlib.axis_2">
    <g id="ytick_1">
     <g id="line2d_10">
      <defs>
       <path id="m19f0c9977a" d="M 0 0 
L -3.5 0 
" style="stroke: #000000; stroke-width: 0.8"/>
      </defs>
      <g>
       <use xlink:href="#m19f0c9977a" x="57.6" y="295.489183" style="stroke: #000000; stroke-width: 0.8"/>
      </g>
     </g>
     <g id="text_11">
      <!-- 0 -->
      <g transform="translate(44.2375 299.288402) scale(0.1 -0.1)">
       <use xlink:href="#DejaVuSans-30"/>
      </g>
     </g>
    </g>
    <g id="ytick_2">
     <g id="line2d_11">
      <g>
       <use xlink:href="#m19f0c9977a" x="57.6" y="262.769512" style="stroke: #000000; stroke-width: 0.8"/>
      </g>
     </g>
     <g id="text_12">
      <!-- 5 -->
      <g transform="translate(44.2375 266.568731) scale(0.1 -0.1)">
       <use xlink:href="#DejaVuSans-35"/>
      </g>
     </g>
    </g>
    <g id="ytick_3">
     <g id="line2d_12">
      <g>
       <use xlink:href="#m19f0c9977a" x="57.6" y="230.04984" style="stroke: #000000; stroke-width: 0.8"/>
      </g>
     </g>
     <g id="text_13">
      <!-- 10 -->
      <g transform="translate(37.875 233.849059) scale(0.1 -0.1)">
       <use xlink:href="#DejaVuSans-31"/>
       <use xlink:href="#DejaVuSans-30" transform="translate(63.623047 0)"/>
      </g>
     </g>
    </g>
    <g id="ytick_4">
     <g id="line2d_13">
      <g>
       <use xlink:href="#m19f0c9977a" x="57.6" y="197.330168" style="stroke: #000000; stroke-width: 0.8"/>
      </g>
     </g>
     <g id="text_14">
      <!-- 15 -->
      <g transform="translate(37.875 201.129387) scale(0.1 -0.1)">
       <use xlink:href="#DejaVuSans-31"/>
       <use xlink:href="#DejaVuSans-35" transform="translate(63.623047 0)"/>
      </g>
     </g>
    </g>
    <g id="ytick_5">
     <g id="line2d_14">
      <g>
       <use xlink:href="#m19f0c9977a" x="57.6" y="164.610497" style="stroke: #000000; stroke-width: 0.8"/>
      </g>
     </g>
     <g id="text_15">
      <!-- 20 -->
      <g transform="translate(37.875 168.409716) scale(0.1 -0.1)">
       <use xlink:href="#DejaVuSans-32"/>
       <use xlink:href="#DejaVuSans-30" transform="translate(63.623047 0)"/>
      </g>
     </g>
    </g>
    <g id="ytick_6">
     <g id="line2d_15">
      <g>
       <use xlink:href="#m19f0c9977a" x="57.6" y="131.890825" style="stroke: #000000; stroke-width: 0.8"/>
      </g>
     </g>
     <g id="text_16">
      <!-- 25 -->
      <g transform="translate(37.875 135.690044) scale(0.1 -0.1)">
       <use xlink:href="#DejaVuSans-32"/>
       <use xlink:href="#DejaVuSans-35" transform="translate(63.623047 0)"/>
      </g>
     </g>
    </g>
    <g id="ytick_7">
     <g id="line2d_16">
      <g>
       <use xlink:href="#m19f0c9977a" x="57.6" y="99.171153" style="stroke: #000000; stroke-width: 0.8"/>
      </g>
     </g>
     <g id="text_17">
      <!-- 30 -->
      <g transform="translate(37.875 102.970372) scale(0.1 -0.1)">
       <defs>
        <path id="DejaVuSans-33" d="M 2597 2516 
Q 3050 2419 3304 2112 
Q 3559 1806 3559 1356 
Q 3559 666 3084 287 
Q 2609 -91 1734 -91 
Q 1441 -91 1130 -33 
Q 819 25 488 141 
L 488 750 
Q 750 597 1062 519 
Q 1375 441 1716 441 
Q 2309 441 2620 675 
Q 2931 909 2931 1356 
Q 2931 1769 2642 2001 
Q 2353 2234 1838 2234 
L 1294 2234 
L 1294 2753 
L 1863 2753 
Q 2328 2753 2575 2939 
Q 2822 3125 2822 3475 
Q 2822 3834 2567 4026 
Q 2313 4219 1838 4219 
Q 1578 4219 1281 4162 
Q 984 4106 628 3988 
L 628 4550 
Q 988 4650 1302 4700 
Q 1616 4750 1894 4750 
Q 2613 4750 3031 4423 
Q 3450 4097 3450 3541 
Q 3450 3153 3228 2886 
Q 3006 2619 2597 2516 
z
" transform="scale(0.015625)"/>
       </defs>
       <use xlink:href="#DejaVuSans-33"/>
       <use xlink:href="#DejaVuSans-30" transform="translate(63.623047 0)"/>
      </g>
     </g>
    </g>
    <g id="ytick_8">
     <g id="line2d_17">
      <g>
       <use xlink:href="#m19f0c9977a" x="57.6" y="66.451482" style="stroke: #000000; stroke-width: 0.8"/>
      </g>
     </g>
     <g id="text_18">
      <!-- 35 -->
      <g transform="translate(37.875 70.2507) scale(0.1 -0.1)">
       <use xlink:href="#DejaVuSans-33"/>
       <use xlink:href="#DejaVuSans-35" transform="translate(63.623047 0)"/>
      </g>
     </g>
    </g>
    <g id="text_19">
     <!-- DOS -->
     <g transform="translate(31.795313 185.488156) rotate(-90) scale(0.1 -0.1)">
      <defs>
       <path id="DejaVuSans-44" d="M 1259 4147 
L 1259 519 
L 2022 519 
Q 2988 519 3436 956 
Q 3884 1394 3884 2338 
Q 3884 3275 3436 3711 
Q 2988 4147 2022 4147 
L 1259 4147 
z
M 628 4666 
L 1925 4666 
Q 3281 4666 3915 4102 
Q 4550 3538 4550 2338 
Q 4550 1131 3912 565 
Q 3275 0 1925 0 
L 628 0 
L 628 4666 
z
" transform="scale(0.015625)"/>
       <path id="DejaVuSans-4f" d="M 2522 4238 
Q 1834 4238 1429 3725 
Q 1025 3213 1025 2328 
Q 1025 1447 1429 934 
Q 1834 422 2522 422 
Q 3209 422 3611 934 
Q 4013 1447 4013 2328 
Q 4013 3213 3611 3725 
Q 3209 4238 2522 4238 
z
M 2522 4750 
Q 3503 4750 4090 4092 
Q 4678 3434 4678 2328 
Q 4678 1225 4090 567 
Q 3503 -91 2522 -91 
Q 1538 -91 948 565 
Q 359 1222 359 2328 
Q 359 3434 948 4092 
Q 1538 4750 2522 4750 
z
" transform="scale(0.015625)"/>
       <path id="DejaVuSans-53" d="M 3425 4513 
L 3425 3897 
Q 3066 4069 2747 4153 
Q 2428 4238 2131 4238 
Q 1616 4238 1336 4038 
Q 1056 3838 1056 3469 
Q 1056 3159 1242 3001 
Q 1428 2844 1947 2747 
L 2328 2669 
Q 3034 2534 3370 2195 
Q 3706 1856 3706 1288 
Q 3706 609 3251 259 
Q 2797 -91 1919 -91 
Q 1588 -91 1214 -16 
Q 841 59 441 206 
L 441 856 
Q 825 641 1194 531 
Q 1563 422 1919 422 
Q 2459 422 2753 634 
Q 3047 847 3047 1241 
Q 3047 1584 2836 1778 
Q 2625 1972 2144 2069 
L 1759 2144 
Q 1053 2284 737 2584 
Q 422 2884 422 3419 
Q 422 4038 858 4394 
Q 1294 4750 2059 4750 
Q 2388 4750 2728 4690 
Q 3069 4631 3425 4513 
z
" transform="scale(0.015625)"/>
      </defs>
      <use xlink:href="#DejaVuSans-44"/>
      <use xlink:href="#DejaVuSans-4f" transform="translate(77.001953 0)"/>
      <use xlink:href="#DejaVuSans-53" transform="translate(155.712891 0)"/>
     </g>
    </g>
   </g>
   <g id="line2d_18">
    <path d="M 73.832727 295.488 
L 151.425164 295.392923 
L 152.399127 295.248935 
L 152.723782 295.013588 
L 153.373091 293.102834 
L 154.347055 292.704198 
L 154.996364 292.692635 
L 155.321018 292.52989 
L 155.645673 292.594847 
L 155.970327 292.32488 
L 156.294982 292.533561 
L 156.619636 292.250481 
L 156.944291 292.393101 
L 157.268945 292.149811 
L 157.5936 292.287958 
L 157.918255 292.120867 
L 158.567564 292.071533 
L 158.892218 291.812192 
L 159.216873 291.848366 
L 159.541527 291.537627 
L 159.866182 291.448661 
L 160.190836 291.220203 
L 160.515491 291.208094 
L 161.1648 290.702102 
L 161.814109 289.897817 
L 162.463418 287.837875 
L 162.788073 285.722137 
L 163.437382 290.706322 
L 163.762036 291.468909 
L 164.086691 291.715899 
L 164.736 292.369629 
L 165.385309 292.582043 
L 165.709964 292.897614 
L 166.034618 292.614885 
L 166.359273 293.033218 
L 166.683927 292.982225 
L 167.657891 293.355777 
L 167.982545 293.19461 
L 169.930473 293.719792 
L 170.255127 293.473563 
L 170.579782 293.765573 
L 170.904436 293.752306 
L 171.229091 293.310155 
L 171.553745 293.949107 
L 171.8784 293.813207 
L 172.203055 293.51901 
L 172.527709 293.999397 
L 172.852364 293.85884 
L 173.177018 294.015768 
L 173.501673 293.453041 
L 173.826327 294.151165 
L 174.150982 293.91583 
L 174.475636 293.962224 
L 174.800291 293.824121 
L 175.124945 294.074262 
L 175.4496 294.110967 
L 175.774255 293.868255 
L 176.098909 294.09907 
L 176.423564 293.997733 
L 176.748218 294.160001 
L 177.072873 293.957536 
L 177.397527 294.163461 
L 177.722182 294.186846 
L 178.046836 294.003521 
L 178.371491 294.018763 
L 178.696145 294.302996 
L 179.670109 294.015783 
L 179.994764 294.295439 
L 180.644073 294.231323 
L 180.968727 294.127062 
L 181.293382 294.375944 
L 181.618036 294.093083 
L 181.942691 294.380769 
L 182.267345 294.269598 
L 182.916655 294.378831 
L 183.565964 294.145923 
L 183.890618 294.478058 
L 184.864582 294.274285 
L 185.189236 294.37516 
L 185.513891 294.334238 
L 185.838545 294.522105 
L 186.1632 294.294115 
L 186.487855 294.495512 
L 186.812509 294.449395 
L 187.137164 294.286715 
L 187.461818 294.315145 
L 187.786473 294.634543 
L 188.111127 294.443795 
L 188.435782 294.525555 
L 188.760436 294.325349 
L 189.085091 294.463477 
L 189.409745 294.444461 
L 189.7344 294.574411 
L 190.059055 294.456843 
L 190.383709 294.468645 
L 190.708364 294.617433 
L 191.357673 294.316084 
L 191.682327 294.575605 
L 194.604218 294.570111 
L 194.928873 294.647394 
L 195.578182 294.400196 
L 195.902836 294.717286 
L 196.227491 294.577413 
L 196.552145 294.638463 
L 196.8768 294.562829 
L 197.201455 294.616316 
L 197.526109 294.462215 
L 197.850764 294.69747 
L 198.824727 294.572977 
L 199.149382 294.741368 
L 199.474036 294.482212 
L 200.448 294.66435 
L 200.772655 294.618913 
L 201.097309 294.709104 
L 201.746618 294.544913 
L 202.395927 294.75738 
L 203.045236 294.617094 
L 203.369891 294.732512 
L 203.694545 294.560986 
L 204.343855 294.809141 
L 204.668509 294.630403 
L 205.317818 294.778513 
L 205.642473 294.702911 
L 205.967127 294.510576 
L 206.616436 294.810918 
L 207.265745 294.650252 
L 207.5904 294.775156 
L 207.915055 294.609005 
L 208.889018 294.791581 
L 209.538327 294.707753 
L 210.187636 294.590767 
L 210.512291 294.817941 
L 210.836945 294.833542 
L 211.1616 294.582448 
L 211.486255 294.843886 
L 212.135564 294.596045 
L 212.460218 294.824479 
L 213.109527 294.76214 
L 213.434182 294.648087 
L 213.758836 294.813457 
L 214.083491 294.56723 
L 214.408145 294.82275 
L 215.382109 294.833062 
L 215.706764 294.613573 
L 217.330036 294.840087 
L 217.654691 294.666009 
L 218.628655 294.787695 
L 219.602618 294.622116 
L 219.927273 294.802516 
L 220.251927 294.854017 
L 221.225891 294.667381 
L 221.550545 294.793953 
L 222.524509 294.796467 
L 222.849164 294.578644 
L 223.173818 294.879697 
L 224.472436 294.638101 
L 224.797091 294.800853 
L 225.771055 294.635615 
L 226.095709 294.768587 
L 227.394327 294.638449 
L 227.718982 294.626121 
L 228.368291 293.864034 
L 230.316218 293.751585 
L 230.640873 293.553073 
L 230.965527 293.735114 
L 231.290182 293.664201 
L 231.614836 293.389019 
L 231.939491 293.579341 
L 232.264145 293.5085 
L 232.5888 293.128815 
L 232.913455 293.275432 
L 233.562764 292.950877 
L 233.887418 292.471467 
L 234.212073 292.204125 
L 234.536727 291.466795 
L 234.861382 290.1117 
L 235.186036 287.152728 
L 235.510691 279.698105 
L 235.835345 245.691359 
L 236.16 53.568 
L 236.484655 246.122518 
L 236.809309 280.191688 
L 237.133964 287.961639 
L 237.458618 290.525095 
L 237.783273 292.094349 
L 238.107927 292.551213 
L 238.432582 293.231732 
L 238.757236 293.328848 
L 239.406545 293.743049 
L 239.7312 293.743435 
L 240.055855 293.883493 
L 240.380509 293.845714 
L 240.705164 294.099993 
L 241.029818 294.011777 
L 241.354473 294.052155 
L 241.679127 293.946485 
L 242.328436 294.210511 
L 242.977745 294.018031 
L 243.951709 294.131459 
L 244.276364 294.323134 
L 244.601018 293.842497 
L 245.250327 294.215405 
L 245.574982 293.963411 
L 245.899636 294.199096 
L 246.548945 293.82832 
L 246.8736 294.112829 
L 247.847564 294.093308 
L 248.172218 293.79713 
L 249.146182 294.143639 
L 249.470836 293.898583 
L 250.120145 293.881788 
L 250.769455 294.004057 
L 251.094109 294.110311 
L 251.418764 293.776538 
L 252.068073 293.825331 
L 252.392727 293.970987 
L 252.717382 293.82107 
L 253.042036 293.912715 
L 253.691345 293.681757 
L 254.340655 293.94068 
L 254.665309 293.558537 
L 254.989964 293.897903 
L 255.314618 293.564174 
L 255.963927 293.803126 
L 257.262545 293.592238 
L 257.5872 293.63747 
L 257.911855 293.526256 
L 258.236509 293.722765 
L 258.561164 293.376076 
L 259.210473 293.688212 
L 259.535127 293.425748 
L 259.859782 293.404595 
L 260.184436 293.581437 
L 260.509091 293.15799 
L 260.833745 293.540557 
L 261.483055 293.278574 
L 261.807709 293.138948 
L 262.132364 293.346733 
L 262.457018 293.160511 
L 262.781673 293.418737 
L 263.430982 292.989347 
L 263.755636 293.210284 
L 264.404945 293.127487 
L 264.7296 292.789383 
L 265.054255 292.984794 
L 265.378909 292.851831 
L 265.703564 292.969754 
L 266.028218 292.912501 
L 266.352873 292.565712 
L 266.677527 292.76512 
L 267.326836 292.299485 
L 267.651491 292.440885 
L 267.976145 292.249879 
L 268.3008 291.588523 
L 268.625455 291.431587 
L 269.274764 292.154319 
L 269.599418 292.504421 
L 269.924073 292.170489 
L 270.248727 292.76084 
L 270.573382 292.582493 
L 270.898036 292.922302 
L 271.547345 292.795777 
L 271.872 293.036357 
L 272.196655 292.993213 
L 272.521309 293.195986 
L 272.845964 293.010326 
L 273.819927 293.313902 
L 274.144582 293.363317 
L 274.793891 293.331543 
L 275.118545 293.311833 
L 275.4432 293.514947 
L 275.767855 293.488197 
L 276.092509 293.272153 
L 276.417164 293.534868 
L 276.741818 293.457185 
L 277.066473 293.631107 
L 277.391127 293.604514 
L 277.715782 293.342223 
L 278.040436 293.708367 
L 278.689745 293.601674 
L 279.339055 293.61475 
L 279.663709 293.594293 
L 279.988364 293.818991 
L 280.313018 293.777093 
L 280.637673 293.45748 
L 280.962327 293.835706 
L 281.286982 293.717613 
L 281.611636 293.7492 
L 281.936291 293.617913 
L 282.260945 293.786353 
L 282.5856 293.706853 
L 282.910255 293.899457 
L 283.234909 293.669792 
L 284.208873 293.935423 
L 284.858182 293.597803 
L 285.182836 293.857458 
L 285.507491 293.860652 
L 285.832145 293.402444 
L 286.1568 293.629893 
L 286.481455 293.318307 
L 286.806109 291.862519 
L 287.130764 289.632369 
L 287.455418 289.245656 
L 287.780073 289.043845 
L 288.104727 289.131953 
L 288.429382 288.784362 
L 288.754036 288.654707 
L 289.078691 288.94586 
L 289.403345 288.303592 
L 289.728 288.333677 
L 290.052655 288.119467 
L 290.377309 288.290949 
L 290.701964 287.642696 
L 291.026618 287.906891 
L 291.351273 287.873895 
L 291.675927 286.67939 
L 292.000582 287.394656 
L 292.649891 286.008045 
L 292.974545 286.501337 
L 293.2992 285.907459 
L 293.623855 284.945455 
L 294.273164 284.162465 
L 294.597818 282.580302 
L 294.922473 282.061225 
L 295.247127 279.007283 
L 295.571782 277.110706 
L 295.896436 278.425961 
L 296.545745 282.120929 
L 296.8704 282.534029 
L 297.195055 283.623331 
L 297.519709 283.944079 
L 298.169018 284.959389 
L 298.818327 285.599753 
L 299.142982 285.765551 
L 300.4416 287.126391 
L 300.766255 287.875129 
L 301.415564 294.153571 
L 301.740218 294.774972 
L 302.389527 295.125483 
L 303.688145 295.311553 
L 306.934691 295.418383 
L 318.622255 295.472154 
L 398.487273 295.487828 
L 398.487273 295.487828 
" clip-path="url(#p3b1b0259c1)" style="fill: none; stroke: #1f77b4; stroke-width: 1.5; stroke-linecap: square"/>
   </g>
   <g id="patch_3">
    <path d="M 57.6 307.584 
L 57.6 41.472 
" style="fill: none; stroke: #000000; stroke-width: 0.8; stroke-linejoin: miter; stroke-linecap: square"/>
   </g>
   <g id="patch_4">
    <path d="M 414.72 307.584 
L 414.72 41.472 
" style="fill: none; stroke: #000000; stroke-width: 0.8; stroke-linejoin: miter; stroke-linecap: square"/>
   </g>
   <g id="patch_5">
    <path d="M 57.6 307.584 
L 414.72 307.584 
" style="fill: none; stroke: #000000; stroke-width: 0.8; stroke-linejoin: miter; stroke-linecap: square"/>
   </g>
   <g id="patch_6">
    <path d="M 57.6 41.472 
L 414.72 41.472 
" style="fill: none; stroke: #000000; stroke-width: 0.8; stroke-linejoin: miter; stroke-linecap: square"/>
   </g>
  </g>
 </g>
 <defs>
  <clipPath id="p3b1b0259c1">
   <rect x="57.6" y="41.472" width="357.12" height="266.112"/>
  </clipPath>
 </defs>
</svg>
