<?xml version="1.0" encoding="utf-8" standalone="no"?>
<!DOCTYPE svg PUBLIC "-//W3C//DTD SVG 1.1//EN"
  "http://www.w3.org/Graphics/SVG/1.1/DTD/svg11.dtd">
<svg xmlns:xlink="http://www.w3.org/1999/xlink" width="460.8pt" height="345.6pt" viewBox="0 0 460.8 345.6" xmlns="http://www.w3.org/2000/svg" version="1.1">
 <metadata>
  <rdf:RDF xmlns:dc="http://purl.org/dc/elements/1.1/" xmlns:cc="http://creativecommons.org/ns#" xmlns:rdf="http://www.w3.org/1999/02/22-rdf-syntax-ns#">
   <cc:Work>
    <dc:type rdf:resource="http://purl.org/dc/dcmitype/StillImage"/>
    <dc:date>2025-09-15T13:07:29.490028</dc:date>
    <dc:format>image/svg+xml</dc:format>
    <dc:creator>
     <cc:Agent>
      <dc:title>Matplotlib v3.10.0, https://matplotlib.org/</dc:title>
     </cc:Agent>
    </dc:creator>
   </cc:Work>
  </rdf:RDF>
 </metadata>
 <defs>
  <style type="text/css">*{stroke-linejoin: round; stroke-linecap: butt}</style>
 </defs>
 <g id="figure_1">
  <g id="patch_1">
   <path d="M 0 345.6 
L 460.8 345.6 
L 460.8 0 
L 0 0 
z
" style="fill: #ffffff"/>
  </g>
  <g id="axes_1">
   <g id="patch_2">
    <path d="M 57.6 307.584 
L 414.72 307.584 
L 414.72 41.472 
L 57.6 41.472 
z
" style="fill: #ffffff"/>
   </g>
   <g id="matplotlib.axis_1">
    <g id="xtick_1">
     <g id="line2d_1">
      <defs>
       <path id="m344dae84c2" d="M 0 0 
L 0 3.5 
" style="stroke: #000000; stroke-width: 0.8"/>
      </defs>
      <g>
       <use xlink:href="#m344dae84c2" x="57.6" y="307.584" style="stroke: #000000; stroke-width: 0.8"/>
      </g>
     </g>
     <g id="text_1">
      <!-- ${\Gamma}$ -->
      <g transform="translate(54.8 322.182437) scale(0.1 -0.1)">
       <defs>
        <path id="DejaVuSans-393" d="M 628 0 
L 628 4666 
L 3531 4666 
L 3531 4134 
L 1259 4134 
L 1259 0 
L 628 0 
z
" transform="scale(0.015625)"/>
       </defs>
       <use xlink:href="#DejaVuSans-393" transform="translate(0 0.09375)"/>
      </g>
     </g>
    </g>
    <g id="xtick_2">
     <g id="line2d_2">
      <g>
       <use xlink:href="#m344dae84c2" x="188.314991" y="307.584" style="stroke: #000000; stroke-width: 0.8"/>
      </g>
     </g>
     <g id="text_2">
      <!-- M -->
      <g transform="translate(184.000929 322.182437) scale(0.1 -0.1)">
       <defs>
        <path id="DejaVuSans-4d" d="M 628 4666 
L 1569 4666 
L 2759 1491 
L 3956 4666 
L 4897 4666 
L 4897 0 
L 4281 0 
L 4281 4097 
L 3078 897 
L 2444 897 
L 1241 4097 
L 1241 0 
L 628 0 
L 628 4666 
z
" transform="scale(0.015625)"/>
       </defs>
       <use xlink:href="#DejaVuSans-4d"/>
      </g>
     </g>
    </g>
    <g id="xtick_3">
     <g id="line2d_3">
      <g>
       <use xlink:href="#m344dae84c2" x="263.775781" y="307.584" style="stroke: #000000; stroke-width: 0.8"/>
      </g>
     </g>
     <g id="text_3">
      <!-- K -->
      <g transform="translate(260.496875 322.182437) scale(0.1 -0.1)">
       <defs>
        <path id="DejaVuSans-4b" d="M 628 4666 
L 1259 4666 
L 1259 2694 
L 3353 4666 
L 4166 4666 
L 1850 2491 
L 4331 0 
L 3500 0 
L 1259 2247 
L 1259 0 
L 628 0 
L 628 4666 
z
" transform="scale(0.015625)"/>
       </defs>
       <use xlink:href="#DejaVuSans-4b"/>
      </g>
     </g>
    </g>
    <g id="xtick_4">
     <g id="line2d_4">
      <g>
       <use xlink:href="#m344dae84c2" x="414.72" y="307.584" style="stroke: #000000; stroke-width: 0.8"/>
      </g>
     </g>
     <g id="text_4">
      <!-- ${\Gamma}$ -->
      <g transform="translate(411.92 322.182437) scale(0.1 -0.1)">
       <use xlink:href="#DejaVuSans-393" transform="translate(0 0.09375)"/>
      </g>
     </g>
    </g>
   </g>
   <g id="matplotlib.axis_2">
    <g id="ytick_1">
     <g id="line2d_5">
      <defs>
       <path id="m4506dcb41f" d="M 0 0 
L -3.5 0 
" style="stroke: #000000; stroke-width: 0.8"/>
      </defs>
      <g>
       <use xlink:href="#m4506dcb41f" x="57.6" y="265.706265" style="stroke: #000000; stroke-width: 0.8"/>
      </g>
     </g>
     <g id="text_5">
      <!-- −4 -->
      <g transform="translate(35.857813 269.505484) scale(0.1 -0.1)">
       <defs>
        <path id="DejaVuSans-2212" d="M 678 2272 
L 4684 2272 
L 4684 1741 
L 678 1741 
L 678 2272 
z
" transform="scale(0.015625)"/>
        <path id="DejaVuSans-34" d="M 2419 4116 
L 825 1625 
L 2419 1625 
L 2419 4116 
z
M 2253 4666 
L 3047 4666 
L 3047 1625 
L 3713 1625 
L 3713 1100 
L 3047 1100 
L 3047 0 
L 2419 0 
L 2419 1100 
L 313 1100 
L 313 1709 
L 2253 4666 
z
" transform="scale(0.015625)"/>
       </defs>
       <use xlink:href="#DejaVuSans-2212"/>
       <use xlink:href="#DejaVuSans-34" transform="translate(83.789062 0)"/>
      </g>
     </g>
    </g>
    <g id="ytick_2">
     <g id="line2d_6">
      <g>
       <use xlink:href="#m4506dcb41f" x="57.6" y="212.6717" style="stroke: #000000; stroke-width: 0.8"/>
      </g>
     </g>
     <g id="text_6">
      <!-- −2 -->
      <g transform="translate(35.857813 216.470919) scale(0.1 -0.1)">
       <defs>
        <path id="DejaVuSans-32" d="M 1228 531 
L 3431 531 
L 3431 0 
L 469 0 
L 469 531 
Q 828 903 1448 1529 
Q 2069 2156 2228 2338 
Q 2531 2678 2651 2914 
Q 2772 3150 2772 3378 
Q 2772 3750 2511 3984 
Q 2250 4219 1831 4219 
Q 1534 4219 1204 4116 
Q 875 4013 500 3803 
L 500 4441 
Q 881 4594 1212 4672 
Q 1544 4750 1819 4750 
Q 2544 4750 2975 4387 
Q 3406 4025 3406 3419 
Q 3406 3131 3298 2873 
Q 3191 2616 2906 2266 
Q 2828 2175 2409 1742 
Q 1991 1309 1228 531 
z
" transform="scale(0.015625)"/>
       </defs>
       <use xlink:href="#DejaVuSans-2212"/>
       <use xlink:href="#DejaVuSans-32" transform="translate(83.789062 0)"/>
      </g>
     </g>
    </g>
    <g id="ytick_3">
     <g id="line2d_7">
      <g>
       <use xlink:href="#m4506dcb41f" x="57.6" y="159.637135" style="stroke: #000000; stroke-width: 0.8"/>
      </g>
     </g>
     <g id="text_7">
      <!-- 0 -->
      <g transform="translate(44.2375 163.436354) scale(0.1 -0.1)">
       <defs>
        <path id="DejaVuSans-30" d="M 2034 4250 
Q 1547 4250 1301 3770 
Q 1056 3291 1056 2328 
Q 1056 1369 1301 889 
Q 1547 409 2034 409 
Q 2525 409 2770 889 
Q 3016 1369 3016 2328 
Q 3016 3291 2770 3770 
Q 2525 4250 2034 4250 
z
M 2034 4750 
Q 2819 4750 3233 4129 
Q 3647 3509 3647 2328 
Q 3647 1150 3233 529 
Q 2819 -91 2034 -91 
Q 1250 -91 836 529 
Q 422 1150 422 2328 
Q 422 3509 836 4129 
Q 1250 4750 2034 4750 
z
" transform="scale(0.015625)"/>
       </defs>
       <use xlink:href="#DejaVuSans-30"/>
      </g>
     </g>
    </g>
    <g id="ytick_4">
     <g id="line2d_8">
      <g>
       <use xlink:href="#m4506dcb41f" x="57.6" y="106.60257" style="stroke: #000000; stroke-width: 0.8"/>
      </g>
     </g>
     <g id="text_8">
      <!-- 2 -->
      <g transform="translate(44.2375 110.401789) scale(0.1 -0.1)">
       <use xlink:href="#DejaVuSans-32"/>
      </g>
     </g>
    </g>
    <g id="ytick_5">
     <g id="line2d_9">
      <g>
       <use xlink:href="#m4506dcb41f" x="57.6" y="53.568005" style="stroke: #000000; stroke-width: 0.8"/>
      </g>
     </g>
     <g id="text_9">
      <!-- 4 -->
      <g transform="translate(44.2375 57.367224) scale(0.1 -0.1)">
       <use xlink:href="#DejaVuSans-34"/>
      </g>
     </g>
    </g>
    <g id="text_10">
     <!-- Energy -->
     <g transform="translate(29.778125 192.03425) rotate(-90) scale(0.1 -0.1)">
      <defs>
       <path id="DejaVuSans-45" d="M 628 4666 
L 3578 4666 
L 3578 4134 
L 1259 4134 
L 1259 2753 
L 3481 2753 
L 3481 2222 
L 1259 2222 
L 1259 531 
L 3634 531 
L 3634 0 
L 628 0 
L 628 4666 
z
" transform="scale(0.015625)"/>
       <path id="DejaVuSans-6e" d="M 3513 2113 
L 3513 0 
L 2938 0 
L 2938 2094 
Q 2938 2591 2744 2837 
Q 2550 3084 2163 3084 
Q 1697 3084 1428 2787 
Q 1159 2491 1159 1978 
L 1159 0 
L 581 0 
L 581 3500 
L 1159 3500 
L 1159 2956 
Q 1366 3272 1645 3428 
Q 1925 3584 2291 3584 
Q 2894 3584 3203 3211 
Q 3513 2838 3513 2113 
z
" transform="scale(0.015625)"/>
       <path id="DejaVuSans-65" d="M 3597 1894 
L 3597 1613 
L 953 1613 
Q 991 1019 1311 708 
Q 1631 397 2203 397 
Q 2534 397 2845 478 
Q 3156 559 3463 722 
L 3463 178 
Q 3153 47 2828 -22 
Q 2503 -91 2169 -91 
Q 1331 -91 842 396 
Q 353 884 353 1716 
Q 353 2575 817 3079 
Q 1281 3584 2069 3584 
Q 2775 3584 3186 3129 
Q 3597 2675 3597 1894 
z
M 3022 2063 
Q 3016 2534 2758 2815 
Q 2500 3097 2075 3097 
Q 1594 3097 1305 2825 
Q 1016 2553 972 2059 
L 3022 2063 
z
" transform="scale(0.015625)"/>
       <path id="DejaVuSans-72" d="M 2631 2963 
Q 2534 3019 2420 3045 
Q 2306 3072 2169 3072 
Q 1681 3072 1420 2755 
Q 1159 2438 1159 1844 
L 1159 0 
L 581 0 
L 581 3500 
L 1159 3500 
L 1159 2956 
Q 1341 3275 1631 3429 
Q 1922 3584 2338 3584 
Q 2397 3584 2469 3576 
Q 2541 3569 2628 3553 
L 2631 2963 
z
" transform="scale(0.015625)"/>
       <path id="DejaVuSans-67" d="M 2906 1791 
Q 2906 2416 2648 2759 
Q 2391 3103 1925 3103 
Q 1463 3103 1205 2759 
Q 947 2416 947 1791 
Q 947 1169 1205 825 
Q 1463 481 1925 481 
Q 2391 481 2648 825 
Q 2906 1169 2906 1791 
z
M 3481 434 
Q 3481 -459 3084 -895 
Q 2688 -1331 1869 -1331 
Q 1566 -1331 1297 -1286 
Q 1028 -1241 775 -1147 
L 775 -588 
Q 1028 -725 1275 -790 
Q 1522 -856 1778 -856 
Q 2344 -856 2625 -561 
Q 2906 -266 2906 331 
L 2906 616 
Q 2728 306 2450 153 
Q 2172 0 1784 0 
Q 1141 0 747 490 
Q 353 981 353 1791 
Q 353 2603 747 3093 
Q 1141 3584 1784 3584 
Q 2172 3584 2450 3431 
Q 2728 3278 2906 2969 
L 2906 3500 
L 3481 3500 
L 3481 434 
z
" transform="scale(0.015625)"/>
       <path id="DejaVuSans-79" d="M 2059 -325 
Q 1816 -950 1584 -1140 
Q 1353 -1331 966 -1331 
L 506 -1331 
L 506 -850 
L 844 -850 
Q 1081 -850 1212 -737 
Q 1344 -625 1503 -206 
L 1606 56 
L 191 3500 
L 800 3500 
L 1894 763 
L 2988 3500 
L 3597 3500 
L 2059 -325 
z
" transform="scale(0.015625)"/>
      </defs>
      <use xlink:href="#DejaVuSans-45"/>
      <use xlink:href="#DejaVuSans-6e" transform="translate(63.183594 0)"/>
      <use xlink:href="#DejaVuSans-65" transform="translate(126.5625 0)"/>
      <use xlink:href="#DejaVuSans-72" transform="translate(188.085938 0)"/>
      <use xlink:href="#DejaVuSans-67" transform="translate(227.449219 0)"/>
      <use xlink:href="#DejaVuSans-79" transform="translate(290.925781 0)"/>
     </g>
    </g>
   </g>
   <g id="line2d_10">
    <path d="M 57.6 307.584 
L 57.6 41.472 
" clip-path="url(#p697b9da992)" style="fill: none; stroke-dasharray: 5.55,2.4; stroke-dashoffset: 0; stroke: #808080; stroke-width: 1.5"/>
   </g>
   <g id="line2d_11">
    <path d="M 188.314991 307.584 
L 188.314991 41.472 
" clip-path="url(#p697b9da992)" style="fill: none; stroke-dasharray: 5.55,2.4; stroke-dashoffset: 0; stroke: #808080; stroke-width: 1.5"/>
   </g>
   <g id="line2d_12">
    <path d="M 263.775781 307.584 
L 263.775781 41.472 
" clip-path="url(#p697b9da992)" style="fill: none; stroke-dasharray: 5.55,2.4; stroke-dashoffset: 0; stroke: #808080; stroke-width: 1.5"/>
   </g>
   <g id="line2d_13">
    <path d="M 414.72 307.584 
L 414.72 41.472 
" clip-path="url(#p697b9da992)" style="fill: none; stroke-dasharray: 5.55,2.4; stroke-dashoffset: 0; stroke: #808080; stroke-width: 1.5"/>
   </g>
   <g id="line2d_14">
    <path d="M 57.6 159.637135 
L 61.132838 159.828365 
L 64.665675 160.402723 
L 68.198513 161.362097 
L 71.73135 162.709242 
L 75.264188 164.447213 
L 78.797026 166.578609 
L 82.329863 169.104691 
L 85.862701 172.024417 
L 89.395538 175.333499 
L 92.928376 179.023549 
L 96.461214 183.081396 
L 99.994051 187.48865 
L 103.526889 192.22152 
L 107.059726 197.250919 
L 110.592564 202.542791 
L 114.125402 208.05865 
L 117.658239 213.756231 
L 121.191077 219.590238 
L 124.723915 225.513094 
L 128.256752 231.475697 
L 131.78959 237.428128 
L 135.322427 243.320304 
L 138.855265 249.10258 
L 142.388103 254.726285 
L 145.92094 260.14421 
L 149.453778 265.311035 
L 152.986615 270.183725 
L 156.519453 274.72187 
L 160.052291 278.887999 
L 163.585128 282.647854 
L 167.117966 285.970638 
L 170.650803 288.829226 
L 174.183641 291.200353 
L 177.716479 293.06477 
L 181.249316 294.407371 
L 184.782154 295.217296 
L 188.314991 295.488 
L 191.908362 295.404763 
L 195.501733 295.156192 
L 199.095104 294.74573 
L 202.688475 294.179183 
L 206.281846 293.464822 
L 209.875217 292.613523 
L 213.468588 291.638941 
L 217.061959 290.557707 
L 220.65533 289.389626 
L 224.248701 288.157857 
L 227.842072 286.888991 
L 231.435443 285.612977 
L 235.028814 284.362751 
L 238.622185 283.173409 
L 242.215556 282.080774 
L 245.808927 281.119183 
L 249.402298 280.318482 
L 252.995668 279.700412 
L 256.589039 279.274884 
L 260.18241 279.036894 
L 263.775781 278.964914 
L 267.369691 279.02132 
L 270.963601 279.15484 
L 274.557511 279.304539 
L 278.151421 279.404508 
L 281.745331 279.388338 
L 285.339241 279.192832 
L 288.933151 278.760714 
L 292.527061 278.042375 
L 296.120971 276.996823 
L 299.714881 275.592062 
L 303.308791 273.805087 
L 306.902701 271.621648 
L 310.496611 269.035883 
L 314.090521 266.049871 
L 317.684431 262.673162 
L 321.278341 258.92228 
L 324.872251 254.820216 
L 328.466161 250.395905 
L 332.060071 245.683689 
L 335.653981 240.722747 
L 339.247891 235.556495 
L 342.841801 230.23194 
L 346.435711 224.798985 
L 350.029621 219.309659 
L 353.623531 213.817286 
L 357.217441 208.375569 
L 360.81135 203.037604 
L 364.40526 197.854824 
L 367.99917 192.875921 
L 371.59308 188.145765 
L 375.18699 183.704423 
L 378.7809 179.586328 
L 382.37481 175.819717 
L 385.96872 172.426398 
L 389.56263 169.421903 
L 393.15654 166.816029 
L 396.75045 164.613728 
L 400.34436 162.816231 
L 403.93827 161.422297 
L 407.53218 160.429443 
L 411.12609 159.835036 
L 414.72 159.637135 
" clip-path="url(#p697b9da992)" style="fill: none; stroke: #000000; stroke-width: 1.5; stroke-linecap: square"/>
   </g>
   <g id="line2d_15">
    <path d="M 57.6 159.637135 
L 61.132838 159.637135 
L 64.665675 159.637135 
L 68.198513 159.637135 
L 71.73135 159.637135 
L 75.264188 159.637135 
L 78.797026 159.637135 
L 82.329863 159.637135 
L 85.862701 159.637135 
L 89.395538 159.637135 
L 92.928376 159.637135 
L 96.461214 159.637135 
L 99.994051 159.637135 
L 103.526889 159.637135 
L 107.059726 159.637135 
L 110.592564 159.637135 
L 114.125402 159.637135 
L 117.658239 159.637135 
L 121.191077 159.637135 
L 124.723915 159.637135 
L 128.256752 159.637135 
L 131.78959 159.637135 
L 135.322427 159.637135 
L 138.855265 159.637135 
L 142.388103 159.637135 
L 145.92094 159.637135 
L 149.453778 159.637135 
L 152.986615 159.637135 
L 156.519453 159.637135 
L 160.052291 159.637135 
L 163.585128 159.637135 
L 167.117966 159.637135 
L 170.650803 159.637135 
L 174.183641 159.637135 
L 177.716479 159.637135 
L 181.249316 159.637135 
L 184.782154 159.637135 
L 188.314991 159.637135 
L 191.908362 159.637135 
L 195.501733 159.637135 
L 199.095104 159.637135 
L 202.688475 159.637135 
L 206.281846 159.637135 
L 209.875217 159.637135 
L 213.468588 159.637135 
L 217.061959 159.637135 
L 220.65533 159.637135 
L 224.248701 159.637135 
L 227.842072 159.637135 
L 231.435443 159.637135 
L 235.028814 159.637135 
L 238.622185 159.637135 
L 242.215556 162.052304 
L 245.808927 165.239347 
L 249.402298 167.935999 
L 252.995668 170.085244 
L 256.589039 171.643277 
L 260.18241 172.58295 
L 263.775781 172.895771 
L 267.369691 172.591797 
L 270.963601 171.697647 
L 274.557511 170.252977 
L 278.151421 168.306091 
L 281.745331 165.909795 
L 285.339241 163.117998 
L 288.933151 159.983266 
L 292.527061 159.637135 
L 296.120971 159.637135 
L 299.714881 159.637135 
L 303.308791 159.637135 
L 306.902701 159.637135 
L 310.496611 159.637135 
L 314.090521 159.637135 
L 317.684431 159.637135 
L 321.278341 159.637135 
L 324.872251 159.637135 
L 328.466161 159.637135 
L 332.060071 159.637135 
L 335.653981 159.637135 
L 339.247891 159.637135 
L 342.841801 159.637135 
L 346.435711 159.637135 
L 350.029621 159.637135 
L 353.623531 159.637135 
L 357.217441 159.637135 
L 360.81135 159.637135 
L 364.40526 159.637135 
L 367.99917 159.637135 
L 371.59308 159.637135 
L 375.18699 159.637135 
L 378.7809 159.637135 
L 382.37481 159.637135 
L 385.96872 159.637135 
L 389.56263 159.637135 
L 393.15654 159.637135 
L 396.75045 159.637135 
L 400.34436 159.637135 
L 403.93827 159.637135 
L 407.53218 159.637135 
L 411.12609 159.637135 
L 414.72 159.637135 
" clip-path="url(#p697b9da992)" style="fill: none; stroke: #000000; stroke-width: 1.5; stroke-linecap: square"/>
   </g>
   <g id="line2d_16">
    <path d="M 57.6 53.568005 
L 61.132838 53.663534 
L 64.665675 53.949432 
L 68.198513 54.42364 
L 71.73135 55.08274 
L 75.264188 55.921983 
L 78.797026 56.935324 
L 82.329863 58.115461 
L 85.862701 59.453891 
L 89.395538 60.94097 
L 92.928376 62.565985 
L 96.461214 64.317226 
L 99.994051 66.182077 
L 103.526889 68.1471 
L 107.059726 70.198139 
L 110.592564 72.320414 
L 114.125402 74.498635 
L 117.658239 76.717109 
L 121.191077 78.959849 
L 124.723915 81.210699 
L 128.256752 83.45344 
L 131.78959 85.671913 
L 135.322427 87.850134 
L 138.855265 89.97241 
L 142.388103 92.023448 
L 145.92094 93.988471 
L 149.453778 95.853322 
L 152.986615 97.604563 
L 156.519453 99.229578 
L 160.052291 100.716657 
L 163.585128 102.055087 
L 167.117966 103.235224 
L 170.650803 104.248565 
L 174.183641 105.087809 
L 177.716479 105.746909 
L 181.249316 106.221116 
L 184.782154 106.507014 
L 188.314991 106.602543 
L 191.908362 107.219526 
L 195.501733 108.971588 
L 199.095104 111.632874 
L 202.688475 114.968122 
L 206.281846 118.788854 
L 209.875217 122.955215 
L 213.468588 127.361188 
L 217.061959 131.920753 
L 220.65533 136.558393 
L 224.248701 141.203175 
L 227.842072 145.785253 
L 231.435443 150.233958 
L 235.028814 154.477068 
L 238.622185 158.441053 
L 242.215556 159.637135 
L 245.808927 159.637135 
L 249.402298 159.637135 
L 252.995668 159.637135 
L 256.589039 159.637135 
L 260.18241 159.637135 
L 263.775781 159.637135 
L 267.369691 159.637135 
L 270.963601 159.637135 
L 274.557511 159.637135 
L 278.151421 159.637135 
L 281.745331 159.637135 
L 285.339241 159.637135 
L 288.933151 159.637135 
L 292.527061 156.555311 
L 296.120971 152.88022 
L 299.714881 149.000213 
L 303.308791 144.953738 
L 306.902701 140.775746 
L 310.496611 136.498043 
L 314.090521 132.149663 
L 317.684431 127.757227 
L 321.278341 123.34526 
L 324.872251 118.936466 
L 328.466161 114.551963 
L 332.060071 110.211481 
L 335.653981 105.933521 
L 339.247891 101.735484 
L 342.841801 97.633776 
L 346.435711 93.643892 
L 350.029621 89.780478 
L 353.623531 86.057381 
L 357.217441 82.487682 
L 360.81135 79.083717 
L 364.40526 75.857084 
L 367.99917 72.818635 
L 371.59308 69.978458 
L 375.18699 67.345829 
L 378.7809 64.929156 
L 382.37481 62.73588 
L 385.96872 60.772358 
L 389.56263 59.043692 
L 393.15654 57.553526 
L 396.75045 56.303787 
L 400.34436 55.29438 
L 403.93827 54.52285 
L 407.53218 53.984017 
L 411.12609 53.669619 
L 414.72 53.568005 
" clip-path="url(#p697b9da992)" style="fill: none; stroke: #000000; stroke-width: 1.5; stroke-linecap: square"/>
   </g>
   <g id="line2d_17">
    <path d="M 57.6 53.568005 
L 61.132838 53.663362 
L 64.665675 53.946699 
L 68.198513 54.409948 
L 71.73135 55.040104 
L 75.264188 55.819866 
L 78.797026 56.728495 
L 82.329863 57.742827 
L 85.862701 58.838393 
L 89.395538 59.990552 
L 92.928376 61.175549 
L 96.461214 62.37143 
L 99.994051 63.558732 
L 103.526889 64.720936 
L 107.059726 65.844657 
L 110.592564 66.919614 
L 114.125402 67.938424 
L 117.658239 68.896266 
L 121.191077 69.790487 
L 124.723915 70.620185 
L 128.256752 71.385809 
L 131.78959 72.088802 
L 135.322427 72.731294 
L 138.855265 73.315849 
L 142.388103 73.845263 
L 145.92094 74.322413 
L 149.453778 74.750142 
L 152.986615 75.13118 
L 156.519453 75.468082 
L 160.052291 75.763195 
L 163.585128 76.018632 
L 167.117966 76.236261 
L 170.650803 76.417698 
L 174.183641 76.564305 
L 177.716479 76.677189 
L 181.249316 76.757211 
L 184.782154 76.80498 
L 188.314991 76.820863 
L 191.908362 76.418779 
L 195.501733 75.307984 
L 199.095104 73.704043 
L 202.688475 71.825086 
L 206.281846 69.835638 
L 209.875217 67.844812 
L 213.468588 65.921143 
L 217.061959 64.106489 
L 220.65533 62.425638 
L 224.248701 60.892388 
L 227.842072 59.51334 
L 231.435443 58.290297 
L 235.028814 57.221799 
L 238.622185 56.304157 
L 242.215556 55.532142 
L 245.808927 54.899467 
L 249.402298 54.399133 
L 252.995668 54.023665 
L 256.589039 53.765295 
L 260.18241 53.616081 
L 263.775781 53.568 
L 267.369691 53.613025 
L 270.963601 53.743148 
L 274.557511 53.950399 
L 278.151421 54.226876 
L 281.745331 54.564747 
L 285.339241 54.956255 
L 288.933151 55.39371 
L 292.527061 55.869477 
L 296.120971 56.375968 
L 299.714881 56.90562 
L 303.308791 57.450882 
L 306.902701 58.004197 
L 310.496611 58.557982 
L 314.090521 59.104611 
L 317.684431 59.636401 
L 321.278341 60.145603 
L 324.872251 60.624393 
L 328.466161 61.064882 
L 332.060071 61.459132 
L 335.653981 61.799199 
L 339.247891 62.0772 
L 342.841801 62.285412 
L 346.435711 62.416425 
L 350.029621 62.463348 
L 353.623531 62.42008 
L 357.217441 62.281666 
L 360.81135 62.044723 
L 364.40526 61.707936 
L 367.99917 61.272613 
L 371.59308 60.74323 
L 375.18699 60.12794 
L 378.7809 59.438941 
L 382.37481 58.692643 
L 385.96872 57.909556 
L 389.56263 57.113857 
L 393.15654 56.332657 
L 396.75045 55.595001 
L 400.34436 54.930717 
L 403.93827 54.369233 
L 407.53218 53.938468 
L 411.12609 53.663924 
L 414.72 53.568005 
" clip-path="url(#p697b9da992)" style="fill: none; stroke: #000000; stroke-width: 1.5; stroke-linecap: square"/>
   </g>
   <g id="patch_3">
    <path d="M 57.6 307.584 
L 57.6 41.472 
" style="fill: none; stroke: #000000; stroke-width: 0.8; stroke-linejoin: miter; stroke-linecap: square"/>
   </g>
   <g id="patch_4">
    <path d="M 414.72 307.584 
L 414.72 41.472 
" style="fill: none; stroke: #000000; stroke-width: 0.8; stroke-linejoin: miter; stroke-linecap: square"/>
   </g>
   <g id="patch_5">
    <path d="M 57.6 307.584 
L 414.72 307.584 
" style="fill: none; stroke: #000000; stroke-width: 0.8; stroke-linejoin: miter; stroke-linecap: square"/>
   </g>
   <g id="patch_6">
    <path d="M 57.6 41.472 
L 414.72 41.472 
" style="fill: none; stroke: #000000; stroke-width: 0.8; stroke-linejoin: miter; stroke-linecap: square"/>
   </g>
  </g>
 </g>
 <defs>
  <clipPath id="p697b9da992">
   <rect x="57.6" y="41.472" width="357.12" height="266.112"/>
  </clipPath>
 </defs>
</svg>
